<?xml version="1.0" encoding="UTF-8" standalone="no"?>
<!-- Created with Inkscape (http://www.inkscape.org/) -->

<svg
   xmlns:dc="http://purl.org/dc/elements/1.1/"
   xmlns:cc="http://creativecommons.org/ns#"
   xmlns:rdf="http://www.w3.org/1999/02/22-rdf-syntax-ns#"
   xmlns:svg="http://www.w3.org/2000/svg"
   xmlns="http://www.w3.org/2000/svg"
   xmlns:sodipodi="http://sodipodi.sourceforge.net/DTD/sodipodi-0.dtd"
   xmlns:inkscape="http://www.inkscape.org/namespaces/inkscape"
   width="96"
   height="96"
   viewBox="0 0 96.000001 96.000002"
   id="svg2"
   version="1.1"
   inkscape:version="0.91 r13725"
   sodipodi:docname="m-www.svg">
  <defs
     id="defs4" />
  <sodipodi:namedview
     id="base"
     pagecolor="#ffffff"
     bordercolor="#666666"
     borderopacity="1.0"
     inkscape:pageopacity="0.0"
     inkscape:pageshadow="2"
     inkscape:zoom="4.72016"
     inkscape:cx="7.7992071"
     inkscape:cy="46.467382"
     inkscape:document-units="px"
     inkscape:current-layer="layer1"
     showgrid="false"
     units="px"
     inkscape:window-width="1440"
     inkscape:window-height="788"
     inkscape:window-x="0"
     inkscape:window-y="34"
     inkscape:window-maximized="1" />
  <metadata
     id="metadata7">
    <rdf:RDF>
      <cc:Work
         rdf:about="">
        <dc:format>image/svg+xml</dc:format>
        <dc:type
           rdf:resource="http://purl.org/dc/dcmitype/StillImage" />
        <dc:title></dc:title>
      </cc:Work>
    </rdf:RDF>
  </metadata>
  <g
     inkscape:label="Layer 1"
     inkscape:groupmode="layer"
     id="layer1"
     transform="translate(0,-956.36216)">
    <g
       id="g3337"
       transform="translate(4.61936e-7,5.2936714)">
      <g
         style="font-style:normal;font-weight:normal;font-size:44.96716309px;line-height:125%;font-family:sans-serif;letter-spacing:0px;word-spacing:0px;fill:#000000;fill-opacity:1;stroke:none;stroke-width:1px;stroke-linecap:butt;stroke-linejoin:miter;stroke-opacity:1"
         id="text3336">
        <path
           d="m 45.184063,992.20959 0,-22.59336 q 0,-2.60186 -0.329349,-4.34741 -0.32935,-1.74555 -1.119788,-2.79947 -0.757504,-1.08685 -2.009031,-1.51501 -1.251528,-0.46109 -3.062949,-0.46109 -1.877291,0 -3.392298,0.75751 -1.515007,0.72457 -2.60186,2.14077 -1.053918,1.38326 -1.646747,3.45817 -0.559893,2.04196 -0.559893,4.70969 l 0,20.6502 -5.895354,0 0,-28.02762 q 0,-1.11979 -0.03294,-2.33838 0,-1.25153 -0.03293,-2.33838 -0.03293,-1.11979 -0.06587,-1.91023 -0.03293,-0.79044 -0.06587,-1.02098 l 5.598938,0 q 0.03294,0.16467 0.06587,0.88924 0.03294,0.72457 0.06587,1.67968 0.06587,0.92218 0.09881,1.91023 0.03293,0.95511 0.03293,1.61381 l 0.0988,0 q 0.790438,-1.54794 1.712616,-2.79947 0.922178,-1.25153 2.140771,-2.10784 1.251528,-0.88924 2.832404,-1.35033 1.613812,-0.49402 3.721648,-0.49402 4.050997,0 6.389377,1.61381 2.371315,1.61381 3.293493,5.13785 l 0.0988,0 q 0.790439,-1.54794 1.778487,-2.79947 0.988048,-1.25153 2.305445,-2.10784 1.317397,-0.88924 2.964144,-1.35033 1.646747,-0.49402 3.754583,-0.49402 2.700664,0 4.643825,0.72457 1.976096,0.72456 3.227624,2.23957 1.251527,1.51501 1.844356,3.91926 0.592829,2.37131 0.592829,5.66481 l 0,23.74608 -5.862418,0 0,-22.59336 q 0,-2.60186 -0.32935,-4.34741 -0.329349,-1.74555 -1.119787,-2.79947 -0.757504,-1.08685 -2.009031,-1.51501 -1.251528,-0.46109 -3.062949,-0.46109 -1.877291,0 -3.392298,0.72457 -1.515007,0.69164 -2.60186,2.0749 -1.053918,1.38327 -1.646747,3.45817 -0.559894,2.0749 -0.559894,4.8085 l 0,20.6502 -5.862418,0 z"
           style="font-style:normal;font-variant:normal;font-weight:normal;font-stretch:normal;font-size:67.45074463px;font-family:'Liberation Sans';-inkscape-font-specification:'Liberation Sans'"
           id="path3344" />
      </g>
      <g
         style="font-style:normal;font-weight:normal;font-size:44.96716309px;line-height:125%;font-family:sans-serif;letter-spacing:0px;word-spacing:0px;fill:#000000;fill-opacity:1;stroke:none;stroke-width:1px;stroke-linecap:butt;stroke-linejoin:miter;stroke-opacity:1"
         id="text3340">
        <path
           d="m 62.277293,1042.2217 -6.883401,0 -5.697743,-22.9886 q -0.26348,-0.8892 -0.559894,-2.2066 -0.26348,-1.3174 -0.526959,-2.569 -0.32935,-1.4491 -0.625764,-2.997 -0.296414,1.482 -0.625764,2.9312 -0.263479,1.2515 -0.592828,2.6018 -0.296415,1.3504 -0.559894,2.3713 l -5.862419,22.8569 -6.850466,0 -9.979285,-35.6356 5.862418,0 6.027093,24.2072 q 0.230545,0.7575 0.461089,1.8772 0.230545,1.0869 0.461089,2.1408 0.230545,1.2186 0.494024,2.5031 0.26348,-1.2516 0.559894,-2.4372 0.26348,-1.021 0.526959,-2.0749 0.26348,-1.0539 0.461089,-1.7456 l 6.455247,-24.4706 6.356443,0 6.224702,24.4706 q 0.230545,0.8563 0.494024,1.9432 0.26348,1.0869 0.494024,2.042 0.26348,1.1198 0.526959,2.2725 0.26348,-1.2516 0.526959,-2.4372 0.230545,-1.021 0.461089,-2.1078 0.26348,-1.1198 0.494024,-1.9761 l 6.290573,-24.2072 5.796548,0 -10.20983,35.6356 z"
           style="font-style:normal;font-variant:normal;font-weight:normal;font-stretch:normal;font-size:67.45074463px;font-family:'Liberation Sans';-inkscape-font-specification:'Liberation Sans'"
           id="path3347" />
      </g>
    </g>
  </g>
</svg>
